<svg xmlns="http://www.w3.org/2000/svg" viewBox="0 0 100 100" role="img" aria-label="OCTA">
  <title>OCTA</title>
  <!-- Same mark as icon.svg, but tighter padding so it survives 16x16. -->
  <rect x="0" y="0" width="100" height="100" rx="14" fill="#16181c"/>

  <polygon points="86.96,65.31 65.31,86.96 34.69,86.96 13.04,65.31 13.04,34.69 34.69,13.04 65.31,13.04 86.96,34.69"
           fill="#22252b" stroke="#f5f0e6" stroke-width="3" stroke-linejoin="round"/>
  <polygon points="75.87,60.71 60.71,75.87 39.29,75.87 24.13,60.71 24.13,39.29 39.29,24.13 60.71,24.13 75.87,39.29"
           fill="none" stroke="#3a3f47" stroke-width="1.5" stroke-linejoin="round"/>

  <circle cx="34.69" cy="13.04" r="3.5" fill="#e0453a"/>
  <circle cx="65.31" cy="13.04" r="3.5" fill="#e0453a"/>
  <circle cx="86.96" cy="34.69" r="3.5" fill="#f08a24"/>
  <circle cx="86.96" cy="65.31" r="3.5" fill="#f08a24"/>
  <circle cx="65.31" cy="86.96" r="3.5" fill="#f2c94c"/>
  <circle cx="34.69" cy="86.96" r="3.5" fill="#f2c94c"/>
  <circle cx="13.04" cy="65.31" r="3.5" fill="#f5f0e6"/>
  <circle cx="13.04" cy="34.69" r="3.5" fill="#f5f0e6"/>

  <circle cx="50" cy="50" r="5" fill="#ffb84d"/>
</svg>
